<?xml version="1.0" standalone="no"?><!DOCTYPE svg PUBLIC "-//W3C//DTD SVG 1.1//EN" "http://www.w3.org/Graphics/SVG/1.1/DTD/svg11.dtd"><svg t="1518108584641" class="icon" style="" viewBox="0 0 1024 1024" version="1.1" xmlns="http://www.w3.org/2000/svg" p-id="1051" xmlns:xlink="http://www.w3.org/1999/xlink" width="200" height="200"><defs><style type="text/css"></style></defs><path d="M682.3 130.7c7.5 0 21.3 1.2 30.1 9.4 2 1.9 8.1 7.5 8.1 21.6 0 15.7-8.5 40.5-32.5 62.9-29.3 27.3-77.7 48-112.6 48-10 0-14.8-1.8-15.6-1.8-6.4-13.2 7.6-70.1 48.2-107.9 21.6-20.2 49.4-32.2 74.3-32.2m0-66.7c-40.2 0-84.5 17.2-119.8 50.1-60.7 56.6-96 160.8-48.9 204.8 15.2 14.1 37.1 20.3 61.8 20.3 52.1 0 116.9-27.5 158-65.8 60.7-56.6 71.6-138.1 24.4-182.1C738.2 72.9 711.3 64 682.3 64" p-id="1052"></path><path d="M341.7 130.7c25 0 52.8 12 74.4 32.1 40.9 38.1 54.9 95.6 49.2 107 0 0-4.4 2.7-16.7 2.7-34.8 0-83.2-20.7-112.5-48-24-22.4-32.5-47.2-32.5-62.9 0-14 6.1-19.7 8.1-21.5 8.7-8.2 22.5-9.4 30-9.4m0-66.7c-29 0-55.8 8.9-75.6 27.3-47.2 44-36.2 125.5 24.5 182.1 41.1 38.4 105.9 65.8 158 65.8 24.7 0 46.6-6.2 61.8-20.3 47.2-44 11.8-148.3-48.9-204.8C426.2 81.2 381.9 64 341.7 64M904.1 600.6V371.9c0-35.9-29.4-65.3-65.3-65.3H544.7v294.1h359.4zM544.7 665.9V960h294.1c35.9 0 65.3-29.4 65.3-65.3V665.9H544.7z" p-id="1053"></path><path d="M479.3 600.6V306.5h-294c-35.9 0-65.3 29.4-65.3 65.3v228.7h359.3zM119.9 665.9v228.7c0 35.9 29.4 65.3 65.3 65.3h294.1v-294H119.9z" p-id="1054"></path></svg>