<?xml version="1.0" standalone="no"?><!DOCTYPE svg PUBLIC "-//W3C//DTD SVG 1.1//EN" "http://www.w3.org/Graphics/SVG/1.1/DTD/svg11.dtd"><svg t="1518321155838" class="icon" style="" viewBox="0 0 1024 1024" version="1.1" xmlns="http://www.w3.org/2000/svg" p-id="5666" xmlns:xlink="http://www.w3.org/1999/xlink" width="200" height="200"><defs><style type="text/css"></style></defs><path d="M907 99.85a18 18 0 0 1 18 18v580a18 18 0 0 1-18 18H117a18 18 0 0 1-18-18v-580a18 18 0 0 1 18-18h790m0-2H117a20.06 20.06 0 0 0-20 20v580a20.06 20.06 0 0 0 20 20h790a20.06 20.06 0 0 0 20-20v-580a20.06 20.06 0 0 0-20-20z" fill="#0E6EC5" p-id="5667"></path><path d="M907 98.85H117a19 19 0 0 0-19 19v580a19 19 0 0 0 19 19h790a19 19 0 0 0 19-19v-580a19 19 0 0 0-19-19z m-10 575a14 14 0 0 1-14 14H141a14 14 0 0 1-14-14v-532a14 14 0 0 1 14-14h742a14 14 0 0 1 14 14z" fill="#01B0F1" p-id="5668"></path><path d="M256.7 877.15l509.95 0 0 48-509.95 0 0-48Z" fill="#01B0F1" p-id="5669"></path><path d="M742.77 878.15A22.9 22.9 0 0 1 765.65 901v0.24a22.9 22.9 0 0 1-22.88 22.88H280.58a22.9 22.9 0 0 1-22.88-22.88V901a22.9 22.9 0 0 1 22.88-22.88h462.19m0-2H280.58A25 25 0 0 0 255.7 901v0.24a25 25 0 0 0 24.88 24.88h462.19a25 25 0 0 0 24.88-24.88V901a25 25 0 0 0-24.88-24.88z" fill="#0E6EC5" p-id="5670"></path><path d="M266.61 207.26h6v428h-6z" fill="#FFBE00" p-id="5671"></path><path d="M266.62 635.66v-6.79h484.17v6.79zM269.62 190.18l-12.65 21.91h25.29l-12.64-21.91z" fill="#FFBE00" p-id="5672"></path><path d="M312.62 482.45h34.5v146.42h-34.5zM387.12 399.45h34.5v229.42h-34.5zM461.62 334.27h34.5v294.6h-34.5zM536.12 433.16h34.5v195.71h-34.5zM610.62 399.45h34.5v229.42h-34.5zM685.12 237.45h34.5v391.42h-34.5z" fill="#0E6EC5" p-id="5673"></path><path d="M312.62 462.45l166.25-171.81 101.06 101.97 162.1-179.27 22.62 19.12 2.38-67.68-67.66 13.5 23.5 19.33-145.84 136.66-103.59-82.82-160.82 211z" fill="#FFBE00" p-id="5674"></path><path d="M796.5 701.66m-130 0a130 130 0 1 0 260 0 130 130 0 1 0-260 0Z" fill="#0FCE9A" p-id="5675"></path><path d="M713.09 720.19l-6.2-24.64v26.7a4.85 4.85 0 0 1-1 3.32 3.63 3.63 0 0 1-5.21 0 4.8 4.8 0 0 1-1-3.34v-30.59q0-2.53 1.32-3.42a6.32 6.32 0 0 1 3.56-0.88H707a9.27 9.27 0 0 1 3.18 0.4 2.67 2.67 0 0 1 1.47 1.43 22.3 22.3 0 0 1 1.08 3.35l5.62 21.19 5.65-21.2a22.17 22.17 0 0 1 1.08-3.35 2.67 2.67 0 0 1 1.47-1.43 9.26 9.26 0 0 1 3.18-0.4h2.43a6.32 6.32 0 0 1 3.56 0.88q1.32 0.89 1.32 3.42v30.61a4.86 4.86 0 0 1-1 3.32 3.38 3.38 0 0 1-2.65 1.11 3.3 3.3 0 0 1-2.56-1.11 4.81 4.81 0 0 1-1-3.32v-26.7l-6.2 24.64q-0.61 2.4-1 3.52a4.87 4.87 0 0 1-1.41 2 4.12 4.12 0 0 1-2.85 0.92 4.17 4.17 0 0 1-3.8-2.11 8.62 8.62 0 0 1-0.83-2q-0.33-1.1-0.65-2.32zM762.06 686.68a20.66 20.66 0 0 1 10.33 2.44 15.83 15.83 0 0 1 6.53 6.94 23.66 23.66 0 0 1 2.22 10.57 25.85 25.85 0 0 1-1.21 8.15 17.64 17.64 0 0 1-3.64 6.36 15.92 15.92 0 0 1-6 4.12 23.51 23.51 0 0 1-16.23 0 16.12 16.12 0 0 1-6-4.13 17.62 17.62 0 0 1-3.63-6.41 25.88 25.88 0 0 1-1.23-8.1 25 25 0 0 1 1.28-8.18 17.53 17.53 0 0 1 3.71-6.33 16 16 0 0 1 5.91-4 21.27 21.27 0 0 1 7.96-1.43z m11.13 19.89a18.13 18.13 0 0 0-1.37-7.36 10.25 10.25 0 0 0-3.92-4.71 10.78 10.78 0 0 0-5.84-1.6 10.57 10.57 0 0 0-4.34 0.88 9.54 9.54 0 0 0-3.43 2.57 12.28 12.28 0 0 0-2.27 4.31 19.49 19.49 0 0 0-0.83 5.9 20 20 0 0 0 0.83 6 12.21 12.21 0 0 0 2.35 4.42 9.86 9.86 0 0 0 3.48 2.62 11 11 0 0 0 9.84-0.63 10.4 10.4 0 0 0 4-4.64 18 18 0 0 0 1.5-7.75zM798 691.38l15.07 22.8v-23a5.05 5.05 0 0 1 1-3.36 3.25 3.25 0 0 1 2.6-1.12 3.35 3.35 0 0 1 2.66 1.12 5 5 0 0 1 1 3.36v30.42q0 5.09-4.22 5.09a5.6 5.6 0 0 1-1.9-0.3 4.82 4.82 0 0 1-1.58-1 9.33 9.33 0 0 1-1.37-1.54q-0.63-0.88-1.27-1.81l-14.7-22.53v22.69a4.83 4.83 0 0 1-1 3.35 3.4 3.4 0 0 1-2.64 1.14 3.36 3.36 0 0 1-2.66-1.15 4.93 4.93 0 0 1-1-3.34v-29.85a8.44 8.44 0 0 1 0.42-3 4.25 4.25 0 0 1 1.66-1.94 4.52 4.52 0 0 1 2.51-0.75 4.11 4.11 0 0 1 3.13 1.27 9.54 9.54 0 0 1 1.16 1.5zM854 693.81h-8.55v28.1a5.17 5.17 0 0 1-1.08 3.6 3.63 3.63 0 0 1-2.8 1.17 3.68 3.68 0 0 1-2.84-1.19 5.14 5.14 0 0 1-1.1-3.59v-28.1h-8.53a4.33 4.33 0 0 1-3-0.88 3 3 0 0 1-1-2.34 3 3 0 0 1 1-2.37 4.4 4.4 0 0 1 2.94-0.87H854a4.38 4.38 0 0 1 3 0.9 3 3 0 0 1 1 2.35 3 3 0 0 1-1 2.34 4.44 4.44 0 0 1-3 0.88zM870.56 691.43v11.08h16.91v-11.08a5.18 5.18 0 0 1 1.07-3.56 3.6 3.6 0 0 1 2.81-1.19 3.73 3.73 0 0 1 2.86 1.17 5.09 5.09 0 0 1 1.1 3.57v30.48a5.1 5.1 0 0 1-1.11 3.59 3.72 3.72 0 0 1-2.85 1.19 3.57 3.57 0 0 1-2.82-1.2 5.28 5.28 0 0 1-1.06-3.58v-13h-16.91v13a5.1 5.1 0 0 1-1.11 3.59 3.72 3.72 0 0 1-2.85 1.19 3.57 3.57 0 0 1-2.82-1.2 5.28 5.28 0 0 1-1.06-3.58v-30.47a5.27 5.27 0 0 1 1-3.56 3.58 3.58 0 0 1 2.84-1.19 3.73 3.73 0 0 1 2.86 1.17 5.09 5.09 0 0 1 1.14 3.58z" fill="#FFFFFF" p-id="5676"></path></svg>