<?xml version="1.0" standalone="no"?><!DOCTYPE svg PUBLIC "-//W3C//DTD SVG 1.1//EN" "http://www.w3.org/Graphics/SVG/1.1/DTD/svg11.dtd"><svg t="1518321225143" class="icon" style="" viewBox="0 0 1024 1024" version="1.1" xmlns="http://www.w3.org/2000/svg" p-id="6205" xmlns:xlink="http://www.w3.org/1999/xlink" width="200" height="200"><defs><style type="text/css"></style></defs><path d="M899.758 823.198 193.177 823.198c-55.072 0-99.865-34.17-99.865-76.19L93.312 216.252c0-8.43-6.822-15.25-15.237-15.25-8.43 0-15.252 6.82-15.252 15.25l0 530.756c0 58.82 58.485 106.665 130.355 106.665l706.581 0c8.43 0 15.25-6.825 15.25-15.255S908.188 823.198 899.758 823.198zM924.983 593.618c-4.865 0-9.475 1.06-13.625 2.95l-184.23-131.585c0.1-1.04 0.15-2.092 0.15-3.16 0-18.21-14.735-32.947-32.95-32.947-18.21 0-32.95 14.735-32.95 32.947 0 1.068 0.06 2.12 0.155 3.16L477.309 596.568c-4.152-1.89-8.765-2.95-13.63-2.95-3.628 0-7.112 0.595-10.377 1.68L199.407 369.624c0.44-2.147 0.67-4.37 0.67-6.645 0-18.212-14.752-32.95-32.95-32.95s-32.95 14.735-32.95 32.95c0 18.212 14.752 32.947 32.95 32.947 3.627 0 7.115-0.592 10.377-1.675l253.894 225.677c-0.438 2.14-0.667 4.365-0.667 6.64 0 18.21 14.752 32.95 32.95 32.95 18.212 0 32.95-14.74 32.95-32.95 0-1.065-0.055-2.12-0.155-3.16l184.227-131.582c4.155 1.888 8.765 2.948 13.63 2.948s9.475-1.06 13.625-2.948l184.229 131.582c-0.1 1.04-0.155 2.095-0.155 3.16 0 18.21 14.735 32.95 32.95 32.95s32.955-14.74 32.955-32.95S943.198 593.618 924.983 593.618z" p-id="6206"></path><path d="M669.7984 352.04096c3.92192-3.11808 8.1408-6.99904 12.66176-11.63776s8.01792-12.35968 10.50112-23.15776 3.81952-23.9616 4.0192-39.48032 0.30208-29.7216 0.30208-42.5984c-0.08192-24.87808-0.39936-42.19904-0.96256-51.95776l-1.5616-26.5216 29.76256 0.83968 125.88032 0 30.3616-0.83968-0.83968 29.28128 0 166.08256c0 5.36064-0.48128 9.00096-1.43872 10.92096s-3.77856 4.1984-8.45824 6.84032-10.85952 4.32128-18.53952 5.03808l-12.60032 1.43872c-0.39936-1.60256-1.05984-4.28032-1.98144-8.0384s-3.81952-11.03872-8.69888-21.84192c9.35936 0.24064 15.04256 0.22016 17.03936-0.06144s3.4816-0.90112 4.43904-1.85856 1.47968-4.43904 1.5616-10.43968l0.24064-149.76-126.60224 0c0 39.36256-0.1024 66.78016-0.30208 82.25792s-0.52224 27.54048-0.96256 36.17792-1.28 15.91808-2.51904 21.84192-3.3792 12.95872-6.42048 21.12-7.9616 15.47776-14.76096 21.95968l-6.59968 6.59968c-2.00192-2.47808-4.3008-5.18144-6.90176-8.09984S678.28224 358.51776 669.7984 352.04096zM730.39872 266.12224l0-24.36096 19.79904 0.48128 22.55872 0 0-13.44-21.84192 0-16.32256 0.59904 0-25.07776 16.32256 0.59904 22.08256 0-0.24064-4.56192-0.48128-12.60032 28.91776 0-0.59904 12.60032 0.24064 4.67968 24.00256-0.11776 17.16224-0.59904 0 25.07776-17.16224-0.59904-24.23808 0 0 13.44 26.76224 0 19.44064-0.48128-0.11776 24.36096-19.31776-0.59904-77.1584 0L730.39872 266.12224zM736.9984 344.23808l0.83968-23.15776L737.83808 296.96l-0.83968-22.92224 24.96 0.83968 51.95776 0 25.3184-0.83968L838.28224 296.96l0.11776 24.12032 0.83968 23.15776-25.3184-0.83968-52.1984 0L736.9984 344.23808zM764.00128 320l47.04256 0 0-21.23776-47.04256 0L764.00128 320z" p-id="6207"></path></svg>